# xmcd
#
# Track frame offsets:
#	150
#	2028
#	13883
#	26708
#	39958
#	54520
#	67821
#	79864
#	93625
#	107072
#	118702
#	130903
#	144316
#	156942
#	170907
#	181849
#	194545
#	207163
#	219644
#	232919
#	248033
#	262760
#	276378
#	287659
#	299754
#
# Disc length: 4182 seconds
#
# Revision: 1
# Processed by: cddbd v1.5.2PL0 Copyright (c) Steve Scherf et al.
# Submitted via: audiograbber 1.83.01
#
DISCID=71105419
DTITLE=Diverse - Harmonica Globetrotter
DYEAR=1900
DGENRE=
TTITLE0=M.A.S.S. - The Man With The Harmonica
TTITLE1=Sonny Boy Williamson - She Was A Dreamer
TTITLE2=Sonny Boy Williamson - Decoration Day Blues No.2
TTITLE3=Sonny Boy Williamson - War Time Blues
TTITLE4=Sonny Boy Williamson - Sloopy Drunk Blues
TTITLE5=Sonny Boy Williamson - Shotgun Blues
TTITLE6=Sonny Boy Williamson - New Early In The Morning
TTITLE7=Sonny Boy Williamson - Million Years Blues
TTITLE8=Sonny Boy Williamson - Blues That Made Me Drunk
TTITLE9=Sonny Boy Williamson - Mellow Chick Swing
TTITLE10=Sonny Terry - Whoopin' The Blues
TTITLE11=Sonny Terry - Leavin' Blues
TTITLE12=Sonny Terry - Riff And Harmonica Jump
TTITLE13=Sonny Terry - All Alone Blues
TTITLE14=Sonny Terry - Harmonica Rag
TTITLE15=Sonny Terry - Screamin' And Cryin' Blues
TTITLE16=Sonny Terry - Airplane Blues
TTITLE17=Brownie McGhee - Workingman`s Blues
TTITLE18=Morganfield - She Moves Me
TTITLE19=Morganfield - Standing Around Crying
TTITLE20=Morganfield - Baby, Please Don`t Go
TTITLE21=Willie Dixon - I`m Ready
TTITLE22=Mel London - Sugar Sweet
TTITLE23=Morganfield - Trouble No More
TTITLE24=J. Kern - All The Things You Are
EXTD=
EXTT0=
EXTT1=
EXTT2=
EXTT3=
EXTT4=
EXTT5=
EXTT6=
EXTT7=
EXTT8=
EXTT9=
EXTT10=
EXTT11=
EXTT12=
EXTT13=
EXTT14=
EXTT15=
EXTT16=
EXTT17=
EXTT18=
EXTT19=
EXTT20=
EXTT21=
EXTT22=
EXTT23=
EXTT24=
PLAYORDER=
